<?xml version="1.0" encoding="UTF-8" standalone="no"?>
<svg width="123px" height="81px" viewBox="0 0 123 81" version="1.1" xmlns="http://www.w3.org/2000/svg" xmlns:xlink="http://www.w3.org/1999/xlink">
    <!-- Generator: Sketch 47 (45396) - http://www.bohemiancoding.com/sketch -->
    <title>Group</title>
    <desc>Created with Sketch.</desc>
    <defs>
        <polygon id="path-1" points="0 81 122.966285 81 122.966285 0.0925381295 0 0.0925381295"></polygon>
    </defs>
    <g id="Wireframe" stroke="none" stroke-width="1" fill="none" fill-rule="evenodd">
        <g id="Extra-large:-Desktops---12-col-Copy-3" transform="translate(-170.000000, -29.000000)">
            <g id="Group" transform="translate(170.000000, 29.000000)">
                <g id="Page-1">
                    <polygon id="Fill-1" fill="#06B9E5" points="0 58 0 81 17 81 17 76.7478288 4.92436779 76.7478288 4.92436779 71.1106619 15.7768325 71.1106619 15.7768325 67.1806828 4.92436779 67.1806828 4.92436779 62.2520516 16.7490968 62.2520516 16.7490968 58"></polygon>
                    <polygon id="Fill-2" fill="#06B9E5" points="23.5529377 80 18 64 22.6745201 64 26.0941245 74.9245408 26.1568353 74.9245408 29.5764397 64 34 64 28.5096565 80"></polygon>
                    <g id="Group-19">
                        <path d="M38.9557741,74.3970082 C39.080983,75.0140068 39.2946635,75.5684197 39.5972807,76.0595478 C39.8993166,76.5510255 40.3012174,76.9432053 40.8019367,77.2357377 C41.302656,77.5288528 41.9283516,77.6750024 42.6792561,77.6750024 C43.4302769,77.6750024 44.0609716,77.5288528 44.5723866,77.2357377 C45.0832202,76.9432053 45.49012,76.5510255 45.7927372,76.0595478 C46.0947732,75.5684197 46.3089187,75.0140068 46.4341276,74.3970082 C46.5593365,73.7803593 46.6218828,73.1476269 46.6218828,72.4992773 C46.6218828,71.8512773 46.5593365,71.2131837 46.4341276,70.5858125 C46.3089187,69.9584413 46.0947732,69.4044945 45.7927372,68.9232729 C45.49012,68.442401 45.0832202,68.0503377 44.5723866,67.7468499 C44.0609716,67.4440614 43.4302769,67.2920845 42.6792561,67.2920845 C41.9283516,67.2920845 41.302656,67.4440614 40.8019367,67.7468499 C40.3012174,68.0503377 39.8993166,68.442401 39.5972807,68.9232729 C39.2946635,69.4044945 39.080983,69.9584413 38.9557741,70.5858125 C38.8306815,71.2131837 38.7681352,71.8512773 38.7681352,72.4992773 C38.7681352,73.1476269 38.8306815,73.7803593 38.9557741,74.3970082 Z M34.919328,68.9702413 C35.3154159,67.9145607 35.8785652,67.0151694 36.6090085,66.2726499 C37.3389868,65.5305967 38.2151002,64.9550888 39.237465,64.5472917 C40.2592486,64.1396111 41.406706,63.9356542 42.6792561,63.9356542 C43.9515737,63.9356542 45.104379,64.1396111 46.1369745,64.5472917 C47.1694537,64.9550888 48.0504499,65.5305967 48.7810095,66.2726499 C49.5108715,67.0151694 50.0741371,67.9145607 50.4705737,68.9702413 C50.8665454,70.0265046 51.0651125,71.2028111 51.0651125,72.4992773 C51.0651125,73.7960931 50.8665454,74.9670384 50.4705737,76.0124629 C50.0741371,77.0583535 49.5108715,77.9523837 48.7810095,78.694437 C48.0504499,79.4369564 47.1694537,80.0069866 46.1369745,80.4039449 C45.104379,80.8010197 43.9515737,80.999965 42.6792561,80.999965 C41.406706,80.999965 40.2592486,80.8010197 39.237465,80.4039449 C38.2151002,80.0069866 37.3389868,79.4369564 36.6090085,78.694437 C35.8785652,77.9523837 35.3154159,77.0583535 34.919328,76.0124629 C34.5228913,74.9670384 34.3249055,73.7960931 34.3249055,72.4992773 C34.3249055,71.2028111 34.5228913,70.0265046 34.919328,68.9702413 Z" id="Fill-3" fill="#06B9E5"></path>
                        <path d="M64.2393077,69.1890578 C65.8859731,69.2096866 67.0902802,68.8733327 67.852578,68.1803456 C68.6151082,67.4877082 68.9960827,66.489019 68.9960827,65.1847442 C68.9960827,63.8807024 68.6151082,62.8873744 67.852578,62.2042938 C67.0902802,61.521796 65.8859731,61.1801974 64.2393077,61.1801974 L58.5679381,61.1801974 L58.5679381,69.1890578 L64.2393077,69.1890578 Z M65.2152859,58.7348132 C67.4104523,58.7348132 69.0723474,59.3002981 70.2006224,60.4312679 C71.3286649,61.5623542 71.8929768,63.1470406 71.8929768,65.1847442 C71.8929768,67.2226809 71.3286649,68.8122622 70.2006224,69.9533715 C69.0723474,71.0948305 67.4104523,71.6550708 65.2152859,71.6345586 L58.5679381,71.6345586 L58.5679381,80.5604089 L55.671044,80.5604089 L55.671044,58.7348132 L65.2152859,58.7348132 Z" id="Fill-5" fill="#CCD84C"></path>
                        <path d="M77.2746337,75.2262734 C77.5286555,75.9704245 77.8791706,76.5918518 78.3266441,77.0910216 C78.7735364,77.590541 79.2970421,77.9725813 79.8970449,78.237259 C80.4963502,78.5022863 81.1319277,78.6346835 81.8027311,78.6346835 C82.4735345,78.6346835 83.108647,78.5022863 83.7085336,78.237259 C84.3078388,77.9725813 84.8314608,77.590541 85.2788181,77.0910216 C85.7257103,76.5918518 86.0763417,75.9704245 86.3307122,75.2262734 C86.5847339,74.4825885 86.7119192,73.6319137 86.7119192,72.6738993 C86.7119192,71.7162345 86.5847339,70.8655597 86.3307122,70.1214086 C86.0763417,69.3777237 85.7257103,68.7510518 85.2788181,68.2413928 C84.8314608,67.7323165 84.3078388,67.3450317 83.7085336,67.0800043 C83.108647,66.8153266 82.4735345,66.6824633 81.8027311,66.6824633 C81.1319277,66.6824633 80.4963502,66.8153266 79.8970449,67.0800043 C79.2970421,67.3450317 78.7735364,67.7323165 78.3266441,68.2413928 C77.8791706,68.7510518 77.5286555,69.3777237 77.2746337,70.1214086 C77.0202632,70.8655597 76.893543,71.7162345 76.893543,72.6738993 C76.893543,73.6319137 77.0202632,74.4825885 77.2746337,75.2262734 M74.6371092,69.4183986 C74.9619315,68.4096863 75.4498625,67.5336043 76.1006697,66.7894532 C76.7510118,66.0457683 77.553767,65.4597712 78.5095165,65.0318115 C79.464801,64.6038518 80.5625005,64.3898719 81.8027311,64.3898719 C83.0628417,64.3898719 84.1657727,64.6038518 85.1110591,65.0318115 C86.0563455,65.4597712 86.8538691,66.0457683 87.5046763,66.7894532 C88.1551347,67.5336043 88.6429494,68.4096863 88.968353,69.4183986 C89.2932916,70.4271108 89.4561678,71.5122777 89.4561678,72.6738993 C89.4561678,73.8354043 89.2932916,74.9159094 88.968353,75.9140158 C88.6429494,76.9128216 88.1551347,77.7840086 87.5046763,78.5276935 C86.8538691,79.2718446 86.0563455,79.8525971 85.1110591,80.2700676 C84.1657727,80.6874216 83.0628417,80.896623 81.8027311,80.896623 C80.5625005,80.896623 79.464801,80.6874216 78.5095165,80.2700676 C77.553767,79.8525971 76.7510118,79.2718446 76.1006697,78.5276935 C75.4498625,77.7840086 74.9619315,76.9128216 74.6371092,75.9140158 C74.3117056,74.9159094 74.1491782,73.8354043 74.1491782,72.6738993 C74.1491782,71.5122777 74.3117056,70.4271108 74.6371092,69.4183986" id="Fill-7" fill="#CCD84C"></path>
                        <mask id="mask-2" fill="white">
                            <use xlink:href="#path-1"></use>
                        </mask>
                        <g id="Clip-10"></g>
                        <path d="M92.6575974,80.5605022 L95.2494329,80.5605022 L95.2494329,64.7567612 L92.6575974,64.7567612 L92.6575974,80.5605022 Z M92.6575974,61.913836 L95.2494329,61.913836 L95.2494329,58.7347899 L92.6575974,58.7347899 L92.6575974,61.913836 Z" id="Fill-9" fill="#CCD84C" mask="url(#mask-2)"></path>
                        <path d="M101.713257,64.7567495 L101.713257,67.2633207 L101.774176,67.2633207 C102.85153,65.3479912 104.559115,64.3899768 106.896928,64.3899768 C107.933709,64.3899768 108.797499,64.5327466 109.488764,64.81782 C110.179564,65.1034761 110.738993,65.5009006 111.165889,66.0099768 C111.592668,66.5196358 111.892495,67.125679 112.06537,67.8288056 C112.237779,68.5319322 112.324507,69.311397 112.324507,70.1673164 L112.324507,80.5604905 L109.732671,80.5604905 L109.732671,69.8616142 C109.732671,68.8834373 109.447725,68.1092171 108.878995,67.5383711 C108.309568,66.9682243 107.526809,66.6824517 106.530951,66.6824517 C105.738194,66.6824517 105.052161,66.8047092 104.472736,67.0493409 C103.893426,67.2939725 103.410378,67.6405826 103.024405,68.0887049 C102.638082,68.5371768 102.34837,69.0619869 102.155383,69.662902 C101.962047,70.2642833 101.865787,70.9214905 101.865787,71.6346401 L101.865787,80.5604905 L99.273951,80.5604905 L99.273951,64.7567495 L101.713257,64.7567495 Z" id="Fill-11" fill="#CCD84C" mask="url(#mask-2)"></path>
                        <path d="M122.966285,64.7567495 L122.966285,67.0493409 L119.8256,67.0493409 L119.8256,76.8616459 C119.8256,77.1673481 119.850828,77.4119797 119.901865,77.5953078 C119.95232,77.7786358 120.049046,77.9215222 120.191578,78.0232675 C120.333527,78.125479 120.531746,78.1913279 120.786116,78.2219797 C121.040138,78.252515 121.370192,78.2678991 121.777092,78.2678991 L122.966285,78.2678991 L122.966285,80.5604905 L120.984335,80.5604905 C120.313531,80.5604905 119.738872,80.5145711 119.261521,80.4228488 C118.783588,80.331243 118.397266,80.1629495 118.102786,79.9185509 C117.807958,79.6739193 117.589279,79.3276588 117.447213,78.8791869 C117.304798,78.4311812 117.233765,77.8399394 117.233765,77.1062776 L117.233765,67.0493409 L114.550435,67.0493409 L114.550435,64.7567495 L117.233765,64.7567495 L117.233765,60.0186574 L119.8256,60.0186574 L119.8256,64.7567495 L122.966285,64.7567495 Z" id="Fill-12" fill="#CCD84C" mask="url(#mask-2)"></path>
                        <path d="M57.3889982,48.3428862 C56.992329,47.3779955 56.7720218,46.3220819 56.7720218,45.2153538 C56.7720218,44.3562876 56.9044387,43.5278732 57.1489273,42.7486416 L52.9850634,42.7486416 C53.2296683,43.5278732 53.3618526,44.3562876 53.3618526,45.2153538 C53.3618526,46.3220819 53.1415455,47.3779955 52.7448763,48.3428862 L57.3889982,48.3428862 Z" id="Fill-13" fill="#06B9E4" mask="url(#mask-2)"></path>
                        <path d="M76.9202938,48.3428862 C76.5236246,47.3779955 76.3032011,46.3220819 76.3032011,45.2153538 C76.3032011,44.3562876 76.435618,43.5278732 76.6801066,42.7486416 L72.8263004,42.7486416 C73.070789,43.5278732 73.2030896,44.3562876 73.2030896,45.2153538 C73.2030896,46.3220819 72.9827824,47.3779955 72.5861132,48.3428862 L76.9202938,48.3428862 Z" id="Fill-14" fill="#06B9E4" mask="url(#mask-2)"></path>
                        <path d="M89.8548133,19.6674993 C89.6861243,19.6674993 89.5176678,19.6702964 89.3494438,19.6762403 C89.1627349,14.5903727 87.0512736,9.79866906 83.3561583,6.1126446 C79.4646848,2.23047194 74.3201923,0.0925381295 68.870525,0.0925381295 C64.1523474,0.0925381295 59.525664,1.77232662 55.8427557,4.82247194 C53.2806819,6.94443885 51.2744334,9.63480432 49.9907226,12.6206158 C47.1068492,11.0605209 43.8414201,10.2252302 40.5004239,10.2252302 C29.7178114,10.2252302 20.9456328,18.7771986 20.9456328,29.2889007 C20.9456328,38.7927065 28.1164863,46.6929453 37.4604173,48.1208763 C37.1192027,47.2167065 36.9309825,46.2378302 36.9309825,45.2153655 C36.9309825,44.2423165 37.1011829,43.308777 37.4115893,42.441436 C31.1677698,41.0450892 26.409716,35.7119094 26.409716,29.2889007 C26.409716,21.7975079 32.7307302,15.7029281 40.5004239,15.7029281 C43.8911782,15.7029281 47.1675354,16.8813324 49.7262377,19.0207813 C50.4614475,19.635682 51.4639324,19.8198259 52.3689939,19.5059655 C53.2738228,19.1924547 53.9488114,18.4267424 54.1483086,17.4880748 C54.839457,14.2350216 56.6771328,11.236623 59.3229116,9.04542734 C62.0287954,6.80446619 65.4195496,5.57023597 68.870525,5.57023597 C72.8656999,5.57023597 76.6414976,7.14175252 79.5018871,9.9954 C82.3373974,12.8239899 83.8989627,16.5245827 83.8989627,20.4156129 C83.8989627,21.1096489 83.8465307,21.8118432 83.7435269,22.503082 C83.6049485,23.431377 83.950232,24.366082 84.6584702,24.9800504 C85.3668247,25.5940187 86.3393152,25.8013554 87.2355411,25.5302676 C88.0789863,25.2746806 88.9603313,25.1451971 89.8548133,25.1451971 C94.6509995,25.1451971 98.5529362,28.8922921 98.5529362,33.4979871 C98.5529362,37.4486892 96.0237632,41.4523036 92.2773785,42.5115971 C92.5720903,43.3591252 92.7343852,44.268423 92.7343852,45.2153655 C92.7343852,46.233518 92.5477925,47.2085482 92.2093681,48.1094547 C92.5297727,48.0613209 92.8575014,48.0025813 93.1822075,47.9303223 C93.5893398,47.8351036 93.9887991,47.7199554 94.379888,47.5863928 C94.4656857,47.5548086 94.5505534,47.5225252 94.6333284,47.4882604 C94.7205213,47.4521309 94.8015525,47.4250921 94.8778171,47.4048129 C100.30993,45.2907712 104.017019,39.549095 104.017019,33.4979871 C104.017019,25.8718662 97.6639182,19.6674993 89.8548133,19.6674993" id="Fill-15" fill="#06B9E4" mask="url(#mask-2)"></path>
                        <path d="M64.9874802,39.6599309 C61.9271285,39.6599309 59.4459698,42.1472719 59.4459698,45.2153655 C59.4459698,48.2835755 61.9271285,50.7708 64.9874802,50.7708 C68.0480643,50.7708 70.5292231,48.2835755 70.5292231,45.2153655 C70.5292231,42.1472719 68.0480643,39.6599309 64.9874802,39.6599309" id="Fill-16" fill="#BBC532" mask="url(#mask-2)"></path>
                        <path d="M84.5186711,39.6599309 C81.4583195,39.6599309 78.9771607,42.1472719 78.9771607,45.2153655 C78.9771607,48.2835755 81.4583195,50.7708 84.5186711,50.7708 C87.5792552,50.7708 90.060414,48.2835755 90.060414,45.2153655 C90.060414,42.1472719 87.5792552,39.6599309 84.5186711,39.6599309" id="Fill-17" fill="#BBC532" mask="url(#mask-2)"></path>
                        <path d="M45.1463478,39.6599309 C42.08588,39.6599309 39.6048374,42.1472719 39.6048374,45.2153655 C39.6048374,48.2835755 42.08588,50.7708 45.1463478,50.7708 C48.2069319,50.7708 50.6879745,48.2835755 50.6879745,45.2153655 C50.6879745,42.1472719 48.2069319,39.6599309 45.1463478,39.6599309" id="Fill-18" fill="#BBC532" mask="url(#mask-2)"></path>
                    </g>
                </g>
            </g>
        </g>
    </g>
</svg>